<?xml version="1.0" standalone="no"?>
<!DOCTYPE svg PUBLIC "-//W3C//DTD SVG 20010904//EN"
 "http://www.w3.org/TR/2001/REC-SVG-20010904/DTD/svg10.dtd">
<svg version="1.0" xmlns="http://www.w3.org/2000/svg"
 width="418.000000pt" height="104.000000pt" viewBox="0 0 418.000000 104.000000"
 preserveAspectRatio="xMidYMid meet">

<g transform="translate(0.000000,104.000000) scale(0.100000,-0.100000)"
fill="#000000" stroke="none">
<path d="M2292 1007 l-53 -20 3 -369 3 -370 34 -30 c33 -30 36 -30 115 -26
105 5 114 11 81 50 -14 16 -25 34 -25 39 0 5 -18 9 -39 9 -26 0 -41 5 -45 16
-3 9 -6 175 -6 370 0 195 -3 353 -7 353 -5 -1 -32 -10 -61 -22z"/>
<path d="M4088 1007 l-58 -21 0 -112 0 -112 -92 -4 c-79 -3 -101 -8 -146 -33
-114 -62 -169 -193 -141 -336 36 -185 200 -261 351 -163 l38 24 6 -25 c6 -23
11 -25 66 -25 54 0 59 2 52 18 -5 9 -11 195 -14 413 l-5 396 -57 -20z m-58
-507 c5 -162 5 -165 -18 -186 -52 -49 -145 -48 -195 2 -37 37 -50 85 -45 169
3 64 7 78 34 112 44 55 87 74 159 71 l60 -3 5 -165z"/>
<path d="M1390 900 l-55 -16 -3 -269 c-4 -324 -1 -348 42 -391 42 -42 95 -51
177 -29 35 8 64 17 66 19 2 2 -3 22 -12 44 -15 38 -19 40 -42 31 -37 -14 -80
-11 -97 7 -13 13 -16 45 -16 190 l0 174 69 0 69 0 15 45 16 45 -84 0 -84 0 -3
83 -3 83 -55 -16z"/>
<path d="M3328 756 c-26 -7 -70 -27 -98 -44 l-50 -31 0 34 0 35 -50 0 -50 0 0
-275 0 -275 55 0 55 0 0 193 c0 188 1 194 23 214 64 59 156 71 198 27 24 -25
24 -29 27 -235 l3 -209 55 0 55 0 -3 238 c-3 230 -4 238 -26 270 -42 59 -114
80 -194 58z"/>
<path d="M1783 739 c-35 -11 -63 -24 -63 -30 0 -16 30 -69 39 -69 5 0 25 7 44
15 20 8 63 15 96 15 76 0 110 -25 118 -86 l5 -41 -98 -7 c-129 -9 -193 -37
-223 -100 -51 -105 -1 -216 112 -247 53 -14 122 0 175 36 l37 26 9 -26 c9 -23
15 -25 64 -25 52 0 54 1 47 22 -4 13 -10 115 -13 228 -7 195 -8 207 -31 239
-13 18 -42 42 -65 52 -56 25 -171 24 -253 -2z m237 -344 l0 -64 -43 -26 c-55
-31 -114 -33 -151 -4 -21 16 -26 29 -26 63 0 69 41 94 158 95 l62 1 0 -65z"/>
<path d="M2645 741 c-22 -10 -55 -34 -72 -54 -35 -40 -73 -147 -73 -206 0 -57
28 -152 57 -194 70 -101 233 -132 378 -71 l35 14 -17 38 c-10 20 -18 38 -19
40 0 1 -18 -5 -38 -13 -20 -9 -66 -16 -101 -17 -80 -1 -124 24 -155 87 -39 80
-39 80 163 83 l177 2 0 48 c0 108 -60 216 -137 249 -47 19 -150 16 -198 -6z
m167 -88 c23 -21 42 -56 52 -95 l6 -28 -126 0 -126 0 6 32 c19 97 125 148 188
91z"/>
</g>
</svg>
